# xmcd
#
# Track frame offsets: 
#        150
#        6918
#        26611
#        51822
#        73803
#        90234
#        110088
#        133276
#        154348
#        172308
#        192898
#
# Disc length: 3033 seconds
#
# Revision: 0
# Processed by: cddbd v1.5.2PL0 Copyright (c) Steve Scherf et al.
# Submitted via: ExactAudioCopy v0.99pb4
#
DISCID=9c0bd70b
DTITLE=SCHADARAPARR - 11
DYEAR=2009
DGENRE=Hip-Hop
TTITLE0=Starting 11
TTITLE1=Antenna of the Empire
TTITLE2=Under the Sun
TTITLE3=Station to Station feat. Robochu?
TTITLE4=Swing '75
TTITLE5=Lights Camera Action
TTITLE6=Kowarekake no... feat. bird
TTITLE7=ON AIR
TTITLE8=Hey! Hey! Alright - SCHADARAPARR and Kimura Kaela
TTITLE9=bekarazu
TTITLE10=Good Old Future (album version)
EXTD=
EXTT0=
EXTT1=
EXTT2=
EXTT3=
EXTT4=
EXTT5=
EXTT6=
EXTT7=
EXTT8=
EXTT9=
EXTT10=
PLAYORDER=
